/* XPM */
static char *_ae2c42990484ea8b13ce508d3f630b33Bex8BViQzpFKuOA[] = {
/* columns rows colors chars-per-pixel */
"64 64 183 2 ",
"   c #002750",
".  c #022D54",
"X  c #092F53",
"o  c #012E5A",
"O  c #082F58",
"+  c #063056",
"@  c #0C3155",
"#  c #04315D",
"$  c #0C325C",
"%  c #113356",
"&  c #12355C",
"*  c #002E62",
"=  c #002F69",
"-  c #023163",
";  c #0C3464",
":  c #0F3867",
">  c #02346B",
",  c #0D366A",
"<  c #0D386E",
"1  c #123662",
"2  c #153865",
"3  c #123769",
"4  c #133A6C",
"5  c #193B6A",
"6  c #043272",
"7  c #0C3672",
"8  c #033970",
"9  c #0D3973",
"0  c #02357A",
"q  c #0F3779",
"w  c #063B7C",
"e  c #0C3C7B",
"r  c #113772",
"t  c #133C73",
"y  c #1A3E74",
"u  c #123778",
"i  c #133D7B",
"p  c #1B3E7C",
"a  c #253E6F",
"s  c #243F76",
"d  c #203F7A",
"f  c #174075",
"g  c #1C4176",
"h  c #15417D",
"j  c #1C427C",
"k  c #254376",
"l  c #2C4576",
"z  c #2C4974",
"x  c #24437C",
"c  c #2B467B",
"v  c #2B4A7D",
"b  c #324C77",
"n  c #30477C",
"m  c #344B7D",
"M  c #3A4E7A",
"N  c #34507F",
"B  c #3C527C",
"V  c #42547D",
"C  c #053B82",
"Z  c #0C3C84",
"A  c #133E83",
"S  c #1A3D82",
"D  c #143F89",
"F  c #0D4081",
"G  c #134383",
"H  c #1D4384",
"J  c #164189",
"K  c #1C448A",
"L  c #1D488D",
"P  c #1C4B91",
"I  c #234483",
"U  c #294684",
"Y  c #244984",
"T  c #2B4B84",
"R  c #23468B",
"E  c #29458B",
"W  c #254A8C",
"Q  c #2B4C8C",
"!  c #344E84",
"~  c #394F83",
"^  c #324E8C",
"/  c #2E5087",
"(  c #26518E",
")  c #2C518D",
"_  c #345285",
"`  c #3B5384",
"'  c #3F5986",
"]  c #34538C",
"[  c #3B558C",
"{  c #36588C",
"}  c #3D598C",
"|  c #254C91",
" . c #2B4E91",
".. c #324F91",
"X. c #275395",
"o. c #2D5393",
"O. c #2F5698",
"+. c #2E5999",
"@. c #345493",
"#. c #3A5694",
"$. c #355995",
"%. c #3C5A95",
"&. c #325798",
"*. c #355B99",
"=. c #3B5D99",
"-. c #36609D",
";. c #3D619C",
":. c #3F64A1",
">. c #415684",
",. c #455A84",
"<. c #42578B",
"1. c #435B8C",
"2. c #4A5D8A",
"3. c #435D94",
"4. c #495F92",
"5. c #415D99",
"6. c #425D99",
"7. c #415C9B",
"8. c #465F9B",
"9. c #435D9C",
"0. c #485F98",
"q. c #45608D",
"w. c #4C628D",
"e. c #526487",
"r. c #52658D",
"t. c #54688D",
"y. c #456195",
"u. c #4B6394",
"i. c #4C6396",
"p. c #4F6497",
"a. c #4D6896",
"s. c #45619B",
"d. c #44639C",
"f. c #48629A",
"g. c #4B6498",
"h. c #4A649B",
"j. c #4D6599",
"k. c #48639D",
"l. c #4A659C",
"z. c #4D649D",
"x. c #4D679F",
"c. c #46699F",
"v. c #4C699D",
"b. c #4D689F",
"n. c #516693",
"m. c #556994",
"M. c #5C6E93",
"N. c #50669B",
"B. c #51689D",
"V. c #526B9D",
"C. c #576C9F",
"Z. c #5A6D9B",
"A. c #5B719D",
"S. c #61749D",
"D. c #4265A1",
"F. c #4466A1",
"G. c #4A66A0",
"H. c #4669A3",
"J. c #4F69A0",
"K. c #4D6AA1",
"L. c #4F6AA2",
"P. c #5067A1",
"I. c #516BA1",
"U. c #516CA2",
"Y. c #526DA2",
"T. c #536DA3",
"R. c #536EA3",
"E. c #556DA3",
"W. c #586EA3",
"Q. c #5A6EA3",
"!. c #5571A5",
"~. c #5770A5",
"^. c #5A72A5",
"/. c #5972A6",
"(. c #5674A9",
"). c #5B74A8",
"_. c #5B75A9",
"`. c #5C79AB",
"'. c #6176A4",
"]. c #6074A6",
"[. c #667AA7",
"{. c #607BAC",
"}. c #697BAA",
/* pixels */
"%.6.6.5. .; 1 0 Q 8...8.6.! >.3.#.5.9.#.9.^ O 1 S |  .X.=.=.O.&.&.o.*.*.X.f . T 3.<.I.s.x.B.^.!.E.K.Y.E.Y.L 4 $ y T ] @.$.&.#.=.",
"6.6.5...8 % = E 8.#.6.9.S ..#.E #.9.#.=.^ o & A |  .Q =.=.( / ( &.*.-.P 4 . T l.2.x.K.f.B.E.E.!.K.E.E.!.K , $ j c ) &.$.#.#.#.#.",
"5.5.#.7 ; L h x ..#.8.H E 8.....5.%.#.Q o 1 i R W W $.=.W v T &.*.O.L 4   x Y.i.1.Q.f.l.B.^.^.K.E.E.).W # & j k T @.@.&.&.#.=.=.",
"#.6.p o Y =.+.T U #.E E 8.....8.%...T ; O 3 K | W @.*.R v T +.o.X.K 5   1.x.v.3.j.Q.g.g.E.^.E.!.^._.( # 1 p c T o.@.%.#.#.#.=.%.",
"9.I # Y D.*.) ,.8.C H 5...Q 6.#...U 4 Q Q & t W  .@.T x T O.( &.Y & . x ].B.x.1.Q.I.f.I.).E.I.^.).@.+ 1 j k T o.@.@.#...@.=.%.6.",
"U . h =.;.+.} } =. .S Q Q #.#...E 4 Q D.9.p   i Q x Y Y O.Q X.Q 1 . s 0.Q.z.u.4.Q.B.u.^.).Y.^.).*.* 2 j x T  .@.@.&.@.&.%.#.%.#.",
"O i P =.&.;.} =.&.c I A #...Q E ; x G.*.m ^ T $ 4 I x Q | X.R , . j [ N.Q.x.0.N.^.f.I._.Y.^.).6.- 1 x x Q o.@.@.@. .#.#.#.%.#.=.",
"G | =.&.;.=.*.&.v c .. .S E u 7 p D.[ B <.d.K.3.o t Q X.X.W ; % t 8.<.B.Z.z.1.Q.E.8.).Q.E.).=.- 1 y x R  .Q  . . .%.#.&.#.#.9.^ ",
"*.v.=.*.d.=.&.T Q o.&.Q P 6 , o.=.` B 3.G.K.x.h.#.X t | R 1 & 6 ..8.2.Q.B.0.0.].0.N.).^.^.#.; 1 p H |  . . . .^ #.@.@.#.#.9...* ",
"K.;.*.H.;.&.] &.&.*.| W 9 4 s.s.~ ' s.K.K.9.8.Q.}.~   4 , % * E P.3.u.B.3.#.Q.Z.0.Q.^.E.@.o 1 D H E | W  .Q c ^ @...@.5.5.Q o T ",
"c.&.;.=.$.] =.&.$.X.| 9 5 ;.%.` 0.x.K.h.s.I.[.Q.B.8.7 % & o u h.z.0.N.n.z.5.Q.2.I.^.6.A o 4 D K | R R  .R x ^  ...@.6.=.Q * T :.",
";.;.*.*.] { $.*.o.o.t 4 =.} 1.v.K.l.s.I.^.^.N.l.Q.8.> % - Q ..P.8.P.n.B.I.Q.n.n.I. .C $ t D R W I H Q I S Q  . .#.6.#.R ; Y F.=.",
"s.;.=.{ } *.=.o.o.9 1 $.1.y.K.v.s.x.I.I.B.P.I.I.8.4 @ = ..#.0.z.h.n.4.Q.z.Q.2.B. .C & t J K K S j W R I  . .Q #.3.&.Q 1 G F.s.H.",
";.=.=.=.*.=.o. .t 1 { 1.l.H.d.d.I.P.B.P.I.u.8.^ = @ , #.5.#.N.0.J.2.B.I.I.n.4...Z & 1 J K K S d R K R | E Q #.%. .Q 1 G ;.G.d.T.",
"d.;.d.=.=.&.X.9 ; [ y.s.d.6.x.I.x.x.P.8.6.8.0.5 X 5 #.#.3.z.8.B.2.8.Q.P.Q.2.Q Z 1 @ 2 J K p p K L K R R Q 6.@.W E ; ) *.K.;.G.G.",
";.;.=.=.$.L t $ %.s.6.=.d.J.J.l.z.f.8.G.Q.N.2 . y #.#.8.P.z.u.>.1.Q.P.I.r.! Z ; 4 t @ 4 S p D R R R R  .#. .R T - =.=.H.H.K.L.F.",
"d.;.;.$.P t & =.d.=.d.K.K.F.s.f.x.I.Q.^.0.; . y #.9.8.z.z.0.V <.I.I.I.n._ h @ f Y Y j @ t D S K R K Q #.E R Q - =.l.;.G.H.K.c.;.",
";.;.%.| t # @.d.h.G.l.=.6.s.x.I.V.V.s.^ # + d #.0.0.3.8.0.V <.P.v.I.n.` Z @ f ( Y ( &.j X u K K S  .@.S R T * =.Y.o.Y.d.!.K.d.d.",
"D.%.( y $ *.H.v.s.=.%.l.I.B.n.i.r.[ C * % d 8.8.0.9.0.0.V <.z.P.I.N.` A + 5 +.Y X.O.X.| y $ p R E  .S E I - ;.(.X.=.s.^.A.} y.d.",
"3.Q 9 # %.G.s.*.6.G.T.I.h.3.<.} Q A & % 6 E 8.#.3.8.0.M <.z.z.P.N.<.A @ t +.] ( *.o.Q @.o.y # S S q E R * ;.(.} q.!.!.^.B ;.d.d.",
"Q 9 2 =.l.=.=.G.G.h.3.} ` ` V ! Z & , 1 7 E ..3.z.4.m 3.P.f.I.i.<.p O t +.( ) -.$.( *.@.( ( I ; ; S p * s.(.{ ,.Z.!.[.B } d.d.H.",
"t 1 s.d.=.l.s.3.} <.1.w.n.m.3.t $ 9  .I O = #.8.~ ! 3.z.8.I.i.1.d O y &.{ / -.-.o.*.$.$.o.@.@.R 4 $ - H.(.] q.B.(.`.V } c.;.l.V.",
"3 =.;.d.l.=.%.q.h.I.P.G.x.6.y + 4 @.@.5.I 3 E ! ! 8.0.8.B.u.1.x + f +.$.m -.;.O.%.;.*.$.o.@.@.W , - s.K./ w.^.!.A.,.y.d.s.d.C.} ",
"| s.d.d.3.y.v.v.6.#.^ [ ^ 6 @ 3 K @.s.@.9.E o u #.8.8.P.4.<.x + f *.-.[ ;.-.$.;.d.*.d.] @.=.Q ; # g.l.] C.`.E.C.y.H.d.;.l.!.q.h ",
"=.d.s.d.x.l.%.! ' f.E.B.x @ 1 G %.v.] s.%.=.j + - U x.3.1.x + j -.-.{ { ;.;.-.c.;.;.&.{ =.Q , 1 s.;.y.`.`.I.G.K.K.c.l.d.!.s.G # ",
"s.6.l.F.%.3.3.` 3.f.6.d . 3 J s.j.@.y.$.y.;.Q < % # d [ Y + h -.-.*.;.;.:.;.c.c.y.%.$.;.$.- & $.=.K.`.!.s.c.K.J.s.s.d.E.l.h $ Y ",
"s.l.D.3.y.l.#.#.u.B.x   3 L v.v.] y.$.s.;.{ f.*.t % O , + h -.-.*.;.;.c.;.D.a.;.=.%.=.*.: $ L =.!.!.G.s.H.I.c.d.d.y.v.G.i ; @.=.",
"l.s.6.f.8.#.u.2.1.k   k Q v.v.] s.%.f.=.$.c.y.d.o.7 & % f -.;.-.;.d.c.;.c.c.c.;.*.y.=.: o K v.!.x.x.=.h.K.v.d.l.1.v.D.h ; $.=.=.",
"s.%.s.6.=.i.,.1.x   z $.g.K.] c.=.c.y.*.c.s.s.@.K y @ G -.-.+.;.:.c.c.:.a.v.c.;.s.@.4 + / (.!.s.h.1.1.F.l.d.G.3.x.F.i o ] =.*.6.",
"=.3.d.#.K.1.<.j   T =.f.j.$.v.%.c.y.{ c.c.y.=.W 9 @ h +.$.-.c.;.c.:.c.c.c.v.;.;.Q 1 @ G Y.v.s.f.} 1.G.l.s.x.s.v.9.i X i &.*.%.8.",
"_ l.*.G.4.<.I . v %.h.J.{ f.=.v.=.%.v.v.;.y.V.f @ h +.-.;.c.;.c.:.a.c.v.Y.c.c.{ * % w *.l.l.s.f.v.G.G.H.l.=.K.=.9 $ A  .$.%.@.#.",
"3.6.6.g.[ p . x 6.B.h._ y.3.v.y.;.j.v.;.g.!.j + , L ;.;.c.$.;.d.:.c.v.!.v.$.Y $ @ i &.d.l.%.f.G.G.s.l.y.%.x.&.> 1 A  .@.%.@.=.` ",
"9.=.u.1.x . f f.A.d.' q.y.a.;.;.v.c.;.v.!.j . 3 ( ;.c.;.;.;.;.;.c.a.!.v.( h + + I =.l.s.3.y.l.l.=.y.} %.G.o.> 1 D W ..=...#.} ~ ",
"6.6.1.x + 9 v.).y.q.d.a.v.;.a.!.c.a.!.v.h X f *.c.;.;.;.} { ;.v.c.!.c.P G & # ( s.l.s.3.s.l.l.=.3.[ *.K.o.> 4 D  ...@.@...=._ ! ",
"6.3.x $ 8 @.^.q.q.y.c.v.s.v.v.v.v.!.d.f @ f ( { N _ { { ;.c.v.c.v.a.P h 4 # { h.s.s.f.s.l.6.s.v.Q 9.K.$., 4 D  .@...&. .%.%.v #.",
"s.I + 7 R Y.a.w.d.V.a.;.!.v.c.C.V.;.t @ f L b v / { ;.c.c.c.d.q.q.Y h f # %.G.s.s.l.s.s.=.x.s.o.G.h. .7 % 7 | .. .#.Q @.3.^ n 3.",
"T O , L m.A.a.c.A.f.v y.v.!.B.c.;.< @ h H / ) $.;.;.;.;.;.y.q.' W h & % A #.s.s.d.8.s.%.K.%.o.G.6.J 7 $ $ @ p  .@.Q ..=.] U 3.3.",
"& * R ^.`.a.v.A.;._ a.c.Z.v.H.@.: + h Q ] -.-.;.-.;.;.q.} >.} K i $ # 9 : J 6.s.8.8.*.x.@.@.G.6. .9 y S 9 1 $ T .. .#.] Q #.6.%.",
"o ] [.'.c.!.V.q.q.v.V.!.c.;.W < + Y O.&.$.$.$.{ -.y.q.' } s.Q h + ; c.D.e : @.6.%.%.G...#.K.9.=.j 4 | o.o.K p ; S E Q E ..5.=.Q ",
"0.}.Z.j.A.V.V.a.Y.V.v.;.} Q 9 @ Y &.) o.) +.;.;.} N / ;.c.o.w @ 3 !._.Y.o.6 k =.=.K.Q @.s.6.=.x >  . .#.*.Q &.( ; 7 E ..%.5.Q ; ",
"[.B.V.A.c.V.v.v.K.;.} q.( t @ p X.Q X.@.&.@.} _ ] @.d.!.%.6 & : K.(.!.w.y.;.8 j F.^ @.6.9.s.T > W  .$.*.o.@.=.=.c $ I =.6...* 1 ",
"B.Z.V.v.j.v.v.v.1.q.a.o.h @ @ 1 K o.Q Q / _ / ] =.v.j.*.e & - ;.(.(.i.v.!.Y.c.t > Q =.d.s.T - W o.#.*.$.@.=.*.T b I - T E * a Q.",
"j.f.f.j.v.v.c.y.a.H.X.q + 7 u $ & t H T T ) $.s.s.y.@.0 % - ;._.`.v.v.!.Y.Y.I.v.k y 9.9.c 9  .o.$.=.=.@.=.=.] b _ =.Q - O < B.Z.",
"y.f.v.v.a.c.v.A.S.g.> @ j I s I : $ E o.$.=.;.s.[ *.H @ - l.`._.!.Y.!.!.K.B.(._.K.j I k t &.&.$.=.=.) $.;.] m _ =.s.&., < 3.q.,.",
"V.V.c.v.V.A.M.A.a.4 $ R E s U c E y , ..=.=.#.{ s.Y + 8 c.{.(.K.K.!.!.!.!.(.K.=.*.&.- 5 *.&.$.=.=.] v %.$.N ` ;.;.@.4 > U ,.3.u.",
"v.a.a.t.t.r.v.d.4 o T Q d n ! c ..d 4 7 @.] #.d.Q . 9 c.`.!.Y.!.!.!.!.!.c.;.;.d.G.T i *.&.=.=.*.] ! } $.] { ;.d.&.4 - Q u.x.K.B.",
"y.a.t.a.a.U.c.f o R ^ I l ^ s ..n n ^ n 6 $.6.R + < H.!.K.!.(.(.!.K.H.;.v.G.K.Y.^ t O.&.*.=.&._ _ { $.{ ;.d.D.&.4 # Y v.V.C.^.C.",
"Z.V.v.H.y.$.2 + E $.E c [ n ^ ~ U ..0.=.x t H # f c.`.(.`.(.V.V.;.K.!.!.Y.Y.H.T 9 o.@.=.=.@._ { %.=.] y.D.=.o.: # I v.V.C.j.3.y.",
"y.c.a.d.o.8 O E &.@.U #.! U [ n ..0.#...E ; . 4 K.`.`.!.B.t.M.^.!.(.!.Y.L.D.f > X.=.=.$.] { { ;.*.{ } F.*.e # - } B.E.V.f.y.V.V.",
"H.V.v.*.p O Q @.@.Q @.~ I ..! ..8.<.[ E 6 % 7 F.(.!.V.t.e.w.Y.*.;.s.d.;.o.1 t O.=.=.$.*.=.;.;.&.%.;.;.F.W & , 3.Z.V.V.l.V.V.f.1.",
"c.d.X.h ; I &.#.@...` I ..[ ^ 8.#.^ ^ S % 6 D.).!.A.m.a.c.G.H.=.=.l.l.o.# t $.s.%.@.*.;.;.*.*.;.;.;.H.$.# 2 C i.V.g.V.V.q.>.q.r.",
"d.L h $ Q @.#.#. .` T Q %.^ 8.<.[ #...1 u @._.).!.Y.K.Y.!.I.!.!.!.K.W o y *.;.o.&.*.;.;.&.*.;.F.c.F.{ $ & 7 #.B.B.B.j.>.,.a.a.c.",
") < $ k $.$.#. ...~ ^ #...3.5.^ [ #.4 G X.(._.T.c.!.(.!.I.I.l.h.;.H . y *.*.( &.d.;.$.O.-.;.F.;.:.( # . $ 1 #.l.V.g.B V j.d.j.v.",
"; $ U ] @.#...@.[ ^ 8...6.#...<.6.1 w L v._.G.I.(.!.G.G.v.H.v.6.Z + f &.$.O.d.*.$.O.;.;.c.;.;.;.] $ # / Y . o Q y.l.y.y.g.d.c.y.",
"$ R ] @.%.%. .#.~ z.#.9...~ 5.3.1 9 O.G.E.l.!.!.v.c.I.Y.K.K.F.J @ 3 X.@.*.=.+.o.*.;.;.;.;.$.;.$.$ . { s.s.x @ - R V.d.v.y.W $.%.",
"T ] ] #.%.Q 6.^ 5.#.5.<.~ <.9.1 4 s.I.(.h.!.U.K.I.I.s.$.@.] P t 3 L o.$.&.o.$.;.;.d.-.;.;.H.=.$ + ] l.l.I.Q 4 $ - T v.%.W y.v.k ",
"..~ ..=...#.5.....#.<.~ #.5.& 3 l.I.E.y.Y.Y.J.I.l.W @.s.y.W q 4 X.&.$.&.X.*.=.d.s.;.;.:.H.*.# $ ] K.x.E.*.` 6.$.. 1 H Q g.s.j . ",
"` #.=.#.#.3...#.5.3.~ <.9.; 3 z.K.Y.s.i.Y.G.I.s.] 1.y.9.&.9 t  .+.O.( &.;.;.s.;.;.;.:.H.$.# # I l.l.^.i.1.%.Y.8.Q . $ 4 Q g . f ",
"[ #.%...9.&.#.%.5.~ <.3.1 3 G.G.K.f.y.I.l.K.F.} y.3.@.@.9 t o.o.( Q z _ h.;.-.;.;.;.-.( $ # T =.v.Y.B.q.3.I.6.c.=.] $ O # + t Q ",
"#.=...=.%.#.#.9.~ <.5.& o 0.G.G.s.i.I.l.h.G.%.y.f.&.=.y 4 X.o.X.! z T ( *.*.;.*.&.-.o.& + ( s.v.I.I.y.3.Y.s.K.d.v.!.] ; & i R Q ",
"=.#.#.%.#.5.5.<.3.#.1 o #.G.8.G.1.B.K.6.K.6.#.f.%.@.t o W X.o.] ] ( &.;.;.&.O.*.:.$.$ o ] s.s.B.E.j.y.Y.l.K.d.l.Y.=.] . 4 R ] @.",
"=.#.=.#.#.5.<.h...1 O ^ G.3.8.3.2.h.8.s.l.%.l.%.Q t + p | @.o.( +.*.*.*.&.:.;.;.@.$ # Q K.6.I.K.E.l.I.v.l.G.l.^.P Y + : I ] @.*.",
"@.%.%.5.5.5.9.U & o E h.5.8.5.2.V 3.=.d.6.6.s.! , % i | ] X.X.*.=.$.*.*.;.*.-.( # ; K G.s.l.Y.!.J.I.Y.l.K.c.).L G @ , I ] @.%.#.",
"5.%.5.5.8.#.4 O ; R 0.5.8.5.2.,.%.#.f.6.=.s.#., $ t |  .X.o.=.$.&.@.*.*.&.*.( $ 3 K =.I.8.T.B.E.I.!.l.Y.g.).o.Z & 3 I ^ @.$.#.$."
};
