/* XPM */
static char *_6f764ed2d3f4055f43802f387c14e2amPTDwk0E97l5ZAEn[] = {
/* columns rows colors chars-per-pixel */
"64 64 201 2 ",
"   c #1C3300",
".  c #1C3B00",
"X  c #243500",
"o  c #243C00",
"O  c #2A3C00",
"+  c #174500",
"@  c #1C4500",
"#  c #164A00",
"$  c #1C4C00",
"%  c #0C5300",
"&  c #0E5C00",
"*  c #0A5508",
"=  c #145501",
"-  c #1D5401",
";  c #145C02",
":  c #1C5B02",
">  c #145D0C",
",  c #1F5D0B",
"<  c #185E11",
"1  c #244400",
"2  c #294301",
"3  c #244C01",
"4  c #294902",
"5  c #244D0A",
"6  c #235302",
"7  c #295304",
"8  c #235B03",
"9  c #2B5B05",
"0  c #24540B",
"q  c #2A540C",
"w  c #245C0B",
"e  c #2A5D0B",
"r  c #2D5B14",
"t  c #325E18",
"y  c #046401",
"u  c #0C6602",
"i  c #056A00",
"p  c #0D6A02",
"a  c #146402",
"s  c #1C6403",
"d  c #146B04",
"f  c #1B6B04",
"g  c #156309",
"h  c #1C640C",
"j  c #146A09",
"k  c #1C6C0B",
"l  c #027200",
"z  c #027A00",
"x  c #0E7C00",
"c  c #167403",
"v  c #1C7304",
"b  c #167B02",
"n  c #1B7A05",
"m  c #1D730B",
"M  c #1E7B09",
"N  c #1E6113",
"B  c #1D6B11",
"V  c #236303",
"C  c #296406",
"Z  c #226C05",
"A  c #24640B",
"S  c #2A650B",
"D  c #236B0B",
"F  c #2A6C0C",
"G  c #316E0A",
"H  c #237506",
"J  c #2B7306",
"K  c #237A07",
"L  c #2D7B05",
"P  c #23730C",
"I  c #2C740C",
"U  c #257B0B",
"Y  c #2B7C0D",
"T  c #327E06",
"R  c #33740D",
"E  c #38740E",
"W  c #337B0D",
"Q  c #3C7E0E",
"!  c #246513",
"~  c #2A6512",
"^  c #256D13",
"/  c #2B6C14",
"(  c #2B631A",
")  c #276818",
"_  c #2C6C1A",
"`  c #306310",
"'  c #326F15",
"]  c #346219",
"[  c #326D1C",
"{  c #257312",
"}  c #2B7414",
"|  c #277A11",
" . c #2C7B13",
".. c #2E7319",
"X. c #2E7919",
"o. c #327415",
"O. c #3B7516",
"+. c #347C14",
"@. c #3B7C15",
"#. c #34741C",
"$. c #39751B",
"%. c #347B1B",
"&. c #3A7C1C",
"*. c #366F21",
"=. c #367321",
"-. c #3B7523",
";. c #3C7B22",
":. c #3F7328",
">. c #3F7929",
",. c #417F15",
"<. c #417E1B",
"1. c #437424",
"2. c #427D25",
"3. c #427729",
"4. c #437C29",
"5. c #487F2D",
"6. c #1D8104",
"7. c #218506",
"8. c #288006",
"9. c #27820A",
"0. c #2B820C",
"q. c #2E8B0D",
"w. c #3A8A06",
"e. c #33820E",
"r. c #3C840E",
"t. c #328E0E",
"y. c #3B8B0E",
"u. c #2D8112",
"i. c #338414",
"p. c #3C8314",
"a. c #358A14",
"s. c #3A8C15",
"d. c #368319",
"f. c #3B841C",
"g. c #358918",
"h. c #3C8B1A",
"j. c #349110",
"k. c #3C9115",
"l. c #3E9119",
"z. c #3E8221",
"x. c #41840F",
"c. c #408D0E",
"v. c #428515",
"b. c #458B16",
"n. c #498C16",
"m. c #43841C",
"M. c #4A851C",
"N. c #428C1D",
"B. c #4C8C1A",
"V. c #528D1E",
"C. c #459214",
"Z. c #499316",
"A. c #4A9917",
"S. c #43921C",
"D. c #4D911A",
"F. c #4C9818",
"G. c #53921C",
"H. c #58961F",
"J. c #448424",
"K. c #4A8525",
"L. c #498726",
"P. c #458B22",
"I. c #4C8926",
"U. c #4A8C26",
"Y. c #468228",
"T. c #4C842B",
"R. c #4D8C29",
"E. c #548E20",
"W. c #50872E",
"Q. c #58872A",
"!. c #508D2A",
"~. c #528C2D",
"^. c #538D2D",
"/. c #469221",
"(. c #4B9324",
"). c #4E9924",
"_. c #4E9228",
"`. c #529525",
"'. c #5A9522",
"]. c #529827",
"[. c #53942B",
"{. c #56912E",
"}. c #58932F",
"|. c #5A972F",
" X c #55992A",
".X c #5A9C2D",
"XX c #4E8431",
"oX c #518730",
"OX c #558C31",
"+X c #588D33",
"@X c #5B8D35",
"#X c #579131",
"$X c #589230",
"%X c #5B9531",
"&X c #5B9432",
"*X c #5D9A31",
"=X c #609627",
"-X c #619239",
";X c #5CA12D",
":X c #5FA231",
">X c #61A231",
/* pixels */
";.J.;.;.#.$ 2 % ! 4.=.2.;./ O.;.=.;.z.;.z._ 1 2 s { | U z.d.u.a.i.u.g.g.8.V o / &.<.oXJ.U.W.{.}.{.!.[.}.[.b 6 2 s P X.d.=.%.d.;.",
";.;.;.=.= 4 1 N ;.=.=.4.h _ =._ ;.;.;.-.#.@ 4 a { | P ;.f.U | | i.g.g.6.8 o ' L.,.W.^.L.U.&X&X&XR.}.{.}.c 3 2 s P  .X.d.d.;.d.=.",
";.;.;.= 1 c v w *.=.4.N ! 4.#._ 4.-.#._ 1 1 a k { m d.d.P P U u.a.u.n V X ~ ^.L.@.&XK.U.^.&X&X!.}.{.|.H 1 2 f D I +.%.%.=.d.;.z.",
";.4.w 1 H s.i.Y j =.) h ;.*._ ;.-..._ 3 o 3 j { { } d.| H P i.i.Y n 6   1.T.L.M.T.+XK.I.}.&X^.{.%X*X| 1 2 f D P ..+.=.d.d.=.;.;.",
">.) o H S.h.i.e.q.j < -.[ ) =.-.-.! 0 F ..4 6 m { X.P H P  .|  .H 3 O 8 @XoXT.m.@X^.L.^.&X&X[.%X%X+.@ 4 f D { o.X.%.d.X.%.z.;.z.",
"/ o s h.N.u.p.L h.u.j ( ) =.-._ < 6 { P.J.s X : { m k P  .| | U 3 O 8 J.@XT.K.2.&XW.K.&X}.^.%X%Xf.$ 2 f k {  . .+.%.X.;.;.=.;.=.",
"1 V x a.a.N.i.g.a.H m a *.*._ N 1 C P.f.J } _ 4 - m k | | | U 6 O w o.T.@XL.M.T.&XL.^.&X#X&X%XJ.$ 4 j Z P  . .%.X.X.=.%.;.;.X.;.",
"f 6.h.a.h.h.a.g.H Z  .| g ( * = s J.&.J @.J.R.z.1 6 P | | U 3 O 8 ;.O.W.OXT.<.@X^.Y.&X%X{.%XJ.$ 4 j k P  .} X.} } ;.=.%.%.=.z...",
"a.(.h.h.N.g.g.U Y  .a.| c = $ } z.+.L m.L.R.L.Y.1.O 8 m m 7 2 # ..4.@.+X^.m.T.-XJ.W.&X&X&Xf.3 3 j m P } } } { _ ;...#.%.-.>...@ ",
"(.S.g.S.h.g.W a.i.g.Y K s 3 m.P.R +.L.R.T.Y.T.^.[./ o 6 6 2 1 h T.2.K.W.3.@.@XQ.m.+X&X&X%.@ 3 p f P { { } { ^ ....X.%.;.;.... I ",
"(.a.h.g.h.Y f.i.g. .U s 3 J.h.+.J.U.R.L.L.oX_.P.Y.Y.- 1 2 1 ; 4.W.2.W.K.4.2.&X,.W.#XJ.d 1 3 p k P { P { k k } X...%.>.;./ 1 +.l.",
"h.N.f.h.e.p.d.a. .u.s 3 f.@.f.U.R.T.L.R._.U.Y.XX+X4.$ 2 1 ~ _ T.2.W.2.W.^.^.Q.2.+X| i 2 6 p k P k k { k s { X.{ ;.>.%./ 3 U /.h.",
"N.N.h.a.p.a.f.i.u.s 3 +.p.m._.R.Y.U.R.U.L.T.+XW.Y.q 2 @ [ #.3.T.K.W.2.+XW.+X,.^. .y 4 6 j j k f f { k k ^ { { ;.;.../ 3 v /.S.(.",
"N.N.f.h.h.h.i.| s 1 +.p.U.R.P.L.R.U.Y.R.OXT.J.#.$ 1 @ #.1.-.T.T.W.<.W.oXW.I.m.%.i 4 3 j j v j j k k B ^ ^ ^ -.>.X.~ 7 c h.(.S.].",
"N.N.N.h.h.d.U s 1 R m.P.P.J.U.U.L.U.W.L.;.Y.4.q O 3 =.-.-.T.5.W.<.2.+XT.^.,.} i 4 O 6 p k j s k k k ^ m ^ ;.;.^ ) $ u.s.].b.].N.",
"P.N.N.h.g.U s 1 +.P.P.z.J.R.U.L.U.L.Y.Y.+XT.q o 7 =.=.3.T.T.4.<.<.oXW.Q.M.I i 4 6 8 o 6 u j j k k ^ B ^ -.} B ~ $ h.h.(./.(.(.(.",
"N.P.h.h.M s 1 @.P.f.P.R.R.P.J.K.K.W.+X&XT.3 o 5 [ 3.5.T.4.4.E o.oXW.^.K.R p 1 7 U n V o - j g k B k _ =.^ B ~ $ f./.h.].P.]./.N.",
"P.h.f.0.s o o.P.P.R.R.P.z.L.W.^.^.^.L.$.3 o 0 =.4.5.4.4.5.E ' oXW.W.T.R u 1 6 9.M U u.8 O > j k k ^ =.k B / # h. Xi.].S.]./.N.P.",
"N.h.Y Z o %./.R.U.z.f.L.R.^.R.J.M.@.u @ O q :.4.3.-.4.4.R ' W.W.oXW.E j 1 7 0.L U a.u.U 8 O g j ^ ^ g B / + h..X0.a.P.].S.h.N./.",
"N.0.s . +.(.P.z.f.U.^.^.I.m.@.@.} a 3 2 $ < 4.-.-.4.5.G o.W.5.W.T.O.a 4 6 q.0.Y a.u.U i. .6 1 g N = B ! + m..Xp.N.(.].).T N./.P.",
"u.s 1 &.U.z.f.U.!.I.L.@.W J R I u 3 3 3 $ < *.:.T.3.F $.oX5.oXoXO.f o 8 t.t.0.s.a.| a.+.| { D 1 3 > A + f.*Xa.r.].].).T m.P.P.(.",
"V 1 <.P.f.U.U.P.f.+.+.v.M.L.m.: 2 $ H D 4 + [ 5.=.C -.W.4.XXT.@.V o 8 t.e.0.a.g.0.a.d.d.+. . .D 6 1 @ P..Xa.r.(.].F.e.p.N.P.(.s.",
"3 +.P.J.P.J.f.@.P.R.^.!.W.T.~ O 3 I +.p.f 3 ( _ ~ 3.5.4.oX5.@.A o 8 t.y.0.s.h.a.a.h.d.d. . .%.m 3 @ L. XY v.`.`.(.T h.U.P.U.b.i.",
"U z.P.P.f.J.U.R.Y.&.o.#.} & O 3 j  .v.@.p.} . = :.5.3.5.4.O.A o V q.s.q.s.s.h.g.P.h.f. .+.f.{ 3 @ P.(.W (. X).(.N.U.U.N.U.S.s.f ",
"d.P.P.J.U.R.z. .+.J.T.^./ 2 4 y Y B.+.v.p.p.C 1 @ ~ XX3.O.~ o V a.k.a.t.S.S.a.(.m.h.d.+.f. .- 1 P.P.m..X X(.(._.[.P.P.(.S.N.f 1 ",
"z.P.L.U.J.@.&.R <.L.Y._ o 4 u @.V.+.v.v.p.b.H - O 1 A #._ o V j.k.t.a.k.S.s.N.P.N.g.d.f.d.$ 4 %.g.(.*X_.U.U._.R.P.P.U.N./.Z 1 F ",
"Y.U.L.z.&.U.;.O.4.OX[ X 4 p v.'.W v.p.p.h.W n.W 6 O 1 6 1 V j.k.y.S.C.S.h.S.(.N.h.f.h.f.- 1 H f.|. X(.P.U.].(.P.(.m.N./.D @ o.f.",
"U.P.z.P.L.;.J.J.M./ o 7 D v.G.+.b.p.v.b.i.n.b.C.e.- 2 O s j.C.a.S.S.S.S.S./.(.N.f.f.z.7 o d P.&X(.U.P.P.[.U.P.U.h.N.(.D @ %.h.z.",
"L.z.J.P.;.L.,.@.F   7 +.v.G.W b.v.v.b.+.n.n.n.r.n s O Z t.k.t.l.S.S.S.N./.(.(.f.N.d.8 o F [.|.I.U.f.+.R.R.P.(.m.P.P.Z 1 o.f.f.z.",
"z.z.Y.&.T.<.@./ o 9 @.h.G.+.B.p.b.n.i.Z.Z.n.p.b s O V q.k.a.S.S.S.S.(.S.(.(.m.N. .6 O a `.}.N.P.p.h.`.U.P.R.N.P./.V o : d.f.z.L.",
"} J.;.J.L.@./ o 9 @.v.G.Q n.v.n.n.i.n.D.n.e.k.Z o V 7.t.k.S.S.S.S.S.(.(.].U.P.i.$ O a d.R.P.P.P.U.R.P.U.R.h.P.P.s 1 j { %.f.X.z.",
"&.L.;.L.@.^ 1 6 +.B.G.R v.v.n.b.p.D.D.n.y.C.T o 3 b k.S.S.s.S.Z.S.(.(.].(.g.+.3 O :  .J.U.m.P.R.(.L.P.P.d.U.f.: 1 a m +.z.X.z.o.",
"L.&.Y.<.F 1 6 E G.V.W r.v.D.b.r.D.F.n.y.Z.W o 1 H s./.b.S.a.h.N.(.(.].`.+.d 1 o s f.P.U.f.J.U.U.z.m.f.+.U.%.; 2 u { X.%.%.%.&.o.",
"z.2.J.F 4 $ p.'.V.p.n.v.G.b.b.G.D.b.k.G.R 1 3 i.S.S.S.S.h.i.b.N.(.].[.i.l 4 o D z.L.L.f.J.U.L.z.J.p.%._.d.; 4 u {  .%.%.} z.o.F ",
";.J.} 1 6 v '.B.Q n.n.G.b.n.G.D.b.C.F.J o 8 K a.i.0.a.d.a.N.(.(.(.B.| l 8 o o.L.L.P.L.L.U.J.J.R. .z._.f.: 3 u { ..X.%.{ ;.&.J #.",
"2.o.1 3 y M.n.,.v.B.G.v.D.G.D.C.F.Z.Z X 9 b K H U Y a.N./.(.P.N.v.H l 7 o #.U.L.J.L.J.U.m.L.U. .L.U.+.; o : m %.} %.} %.z.} D z.",
"#.1 1 u v.G.n.n.G.V.L r.G.Z.A.G.C.Z O 6 c v Y i.h.N.N.N.v.N.h.p.K d 7 o p d.L.J.L.z.P.;.P.L.{ L.P.m ; O 2 1 h { %...{ ;.#.D %.2.",
"3 4 a b.H.G.B.H.n.T v.n.Z.G.F.s.Z X 8 M Y d.h.h.h.p.f.N.h.p.@.v d 4 . 3 6 m J.Y.J.L.&.U.z.} U.L.| & 7 a - 2 1 } ..^ &.#.F %.;.;.",
"O a B. XB.G.H.n.r.D.F.G.G.C.Y a o 8 U i.f.a.d.d.d.f.h.@.+.f. .a 1 . h.h.s 6 %.J.z.%.T.%.%.U.J.f.^ 3 D { D a - 3 k } } ^ =.;.;...",
"s G.H.V.V.H.B.n.D.G.G.n.r.8.f O w  .i.u. . .d.h.f.p.Y +.P.z.u 3 1 (.:X].L $ ~ z.;.U.%.} L.J.z.o.@ { | %.%.|  ./ 2 = h ..;.;...6 ",
"H.H.V.H.V.V.G.G.G.D.r.r.8.v O 8 | | |  .+.%.g.+.}  .f._.L.y 1 o U.;X XB.g.g.- D L.#.} J.J.J.#.@ | | u.=. .X.&.d.A 1 ^ ;.;.#.$ . ",
"V.V.G.B.V.n.G.D.v.r.n.y.c 4 2 6 H | }  . . .I I +.P.R.L.j 1 o p.;X.X(.b. X Xh.7 w { &.J.L.#.$ k | X.d.d. .;.d.| P V 5 #._ $ 3 Q.",
"V.V.M.n.B.V.n.x.n.Z.s.j 2 1 6 o 3 D h H I { +.f.U.U.&.u 4 o L ;X>X].(..X X[. Xf.3 A J.J.#.$ m | X.d.d.i.d.z. .J F i.A $ 3 $ I.'.",
"v.n.B.V.D.n.D.D.b.w.d 4 6 g ; , 1 1 k } X.d.z.J.&.&.k 1 1 i.:X>X X X X X[._.(. XP.8 / ' 6  . .d.d.h. .i.z.i.J I f.J. .3 1 E B.,.",
"n.V.G.V.D.Z.c.c.Z.I X - ^ s A ) g 3 6 X.%.z.;.#.;.o.3 1 s.>X>X X X X X(.(. X XU.z.u.$ 3 +.i.i.d.d.+.H d.f.Y Y f.z.g.V 3 f Q @.v.",
"H.V.b.c.w.c.D.G.R X 8 X.B h / s _ N $ - %.%...z.%.@ $ g.>X.X].]. X X X X].(.f.z.P.%.-  .u.d.f.g.d.Y +.g.Y i.h.P.h.V o s p.M.B.V.",
"p.r.w.v.n.G.F.R X : ..) s _ A ) _ A _ 0 ; ..J.X.$ 3 s.;X].]..X.X X`.[.U.P.U._.].z.:  .i.d.g.g.+.Y W d.+.g.z.P.h.V 1 s M.V.V.'.V.",
"G.G.G.B.G.C.G X A X...s } / ! #.A _ :.3.0 ! ^ $ 1 h.;X.X.X>X.X(.S.].(.[.[.[._.&.- | a.f.h.d. .W i.g.i.h.P.h.g.V o ; <.V.'.V.M.v.",
"B.n.n.n.a.d o A X.%.D ..#.h ../ _ >.:.*.) @ 1 1 N.>X>X>X XZ.s.S.]..X%X`.[.(.#.$ U i.f.f.i.e.+.g.h.W g.B.f.b 6 X S B.V.E.M.,.M.G.",
"v.D.G.b.H 1 8 %.;.{ ..#.A _ } ~ 4.:.[ _ * 3 1 a..X*X(.b.w.w.].(._._.U.P.h.F $ U g.f.g.i.g.g.h.h.i.g.h./.0.3 1 O.E.V.V.M.V.V.V.v.",
"B.G.r.c 3 - } %.../ #.F / =.A 3.3.[ [ < o 3 i..X].Z.C.n.P.(._.i.d.h.P.i.- $ | h.f.a.a.h.N.g.g.a.b.N./.s.8 1 & M.V.M.M.E.V.,.Q v.",
"n.e.l 6 w X.%.;.} #.{ A ;./ ;.3.[ _ =.5 6 K [.]. X X].(.[.[.].[.{.[.f.7 3 u.h.f. .g.h.n.g.e.h.l.S.S.h.8 O - D M.M.V.E.,.R x.B.B.",
"p.d 3 6 %.%.%.X.} o./ #.#.-.3.=.[ -.r 8 x U..X.X].[.[.%X X X[._.U. .$ 3  .h.i.u.N.h.h.i.a.S.S./.S.a.7 O O 6 m.B.V.M.E W B.M.n.B.",
"s O 8 } %.&.-.} %./ 3.;.=.3.#.[ 4.r - z z.=X`.R. X&X[.R._.U.P.P.m 3 3 | h.| g.h.h.i.g.l.S.S.l.l.s.7 X e 8 o - O.M.v.Q v.n.v.V.B.",
"O e } #.%.&.} %.} 4.2.=.3.' ' 3.t @ n h.*X_.[..X{.(.(._.[.[._. .3 2 U i.i.h.a.u.i.h.l.S.l.s.l.h.9 X ` P.&.7 O = R E.M.M.B.+.+.W ",
"8  .#.%.-.X.%.#.$.5.#.3./ #.3.] . %.R.%XR.].&X(.U.}.[.P.z.f.| a 2 d Y g.a.u.u.h.l.l.l.s.s.S.S.9   S U.Y.^.} 1 1 - @.B.M.H +.n.E ",
" .o.X.;.%.#.;.} #.[ ;.' ' 4.] . &.[.}.R.!.|.R.[.[.f. .f.m.H u 7 v  .a.i.Y i.h.l.l.s.j.l.A.S.9 X S U.U.}.J.I o./ o - +.J v.B.o.o ",
"%.#.%.z.} z.#.=.;.3.' o.3.]   &.!.^.R.m.[.R.[.[.o.H P.U.J.d 6 m u.i.u.i.g.h.s.s.s.k.S./.l.C X : L.U.+XW.p.+.].J.: O $ C p.F X 6 ",
"#.&.;.#.;.;.#.;.;.O.' 2.]   &.^.R.R.m.R.R.R.R.%.p.P.o.d.f $ P i. .Y H Y k.s.a.j.S.S.k.s.C X w f.R.W.^.m.@.R.U.U.m.: O 4 - 1 6 m ",
"&.&.%.%.;.#.;.2.#.' 3.]   $.R.L.R.m.!.R.J.!.m.p.U.%.f.} 3 P u.| | U H U q.h.h.l.s.s.t.V X A f.L.R.+XP.f._.R.P.U.P.[.S 1 O 6 j } ",
"&.z...z.&.;.;.$.$.;.] X ~ R.Y.U.&.I.R.J.U.K.+.J.J.&./ 1 k | u.| P U u.a.h.h.a.q.s.S.C X A J.J.R.+X!.v.R.[.P.R.m..XU.f.1 3 f }  .",
"z.#.;.;.;.;.;.3.4.r X 8 L.4.L.2.M.L.L.J.L.f.J.J.} D o : m u.u.Y  .a.h.a.g.g.h.S.s.V X 8 U.J.R.^.#XP.U.{.J.[.P.|.d. .3 1 f  .X.&.",
";.%.;.;.;.;.4.3.w o - ;.2.Y.Y.<.@.J.z.Y.L.;.5.%.a 4 3 c  . .| u.h.a.i.g.s.l.l.a.8 O a L.T.J.^.#X!.U.}.P.^.P.%Xa.l 3 o s } %.%.&.",
"%.;.;.;.3.2.[ $ 1 - ;.Y.;.Y.;.<.#.;.z.L.;.J.z.V O 3 j  .|  .g.f.i.i.g.s.g.s.q.8 4 u o.!.J.W.^.}.I.{.U.{.P..XJ.i 7 4 f } +.X.f.%."
};
