/* XPM */
static char *_5f85ff703ae47689c8eb0d80b2b18a4HG8pqlTDA54xzMsU[] = {
/* columns rows colors chars-per-pixel */
"64 64 181 2 ",
"   c #4F1602",
".  c #4E1A05",
"X  c #4E1E09",
"o  c #551601",
"O  c #5A1700",
"+  c #541B05",
"@  c #5B1D05",
"#  c #541E08",
"$  c #5B1F08",
"%  c #631E03",
"&  c #6B1E03",
"*  c #572007",
"=  c #5D2007",
"-  c #562109",
";  c #5B2109",
":  c #642106",
">  c #6C2305",
",  c #632309",
"<  c #6C2508",
"1  c #732505",
"2  c #7C2503",
"3  c #752906",
"4  c #7C2A05",
"5  c #732708",
"6  c #7B2609",
"7  c #75290A",
"8  c #7B2A0A",
"9  c #7C300B",
"0  c #7E2C11",
"q  c #842505",
"w  c #882701",
"e  c #832B04",
"r  c #8B2B05",
"t  c #822709",
"y  c #8C2709",
"u  c #842C0B",
"i  c #8A2E0A",
"p  c #932D03",
"a  c #9D2F06",
"s  c #922F0B",
"d  c #9C2C0A",
"f  c #833105",
"g  c #8E3306",
"h  c #853109",
"j  c #8C320A",
"k  c #933205",
"l  c #9C3303",
"z  c #963805",
"x  c #9D3905",
"c  c #94330A",
"v  c #9B340B",
"b  c #93380B",
"n  c #9C3A0D",
"m  c #802E11",
"M  c #8F2F11",
"N  c #922F11",
"B  c #813011",
"V  c #8A3312",
"C  c #923411",
"Z  c #9C3514",
"A  c #963B11",
"S  c #9C3A11",
"D  c #97381B",
"F  c #993A18",
"G  c #A43504",
"H  c #AA3604",
"J  c #A43905",
"K  c #AB3804",
"L  c #A5350B",
"P  c #AA350D",
"I  c #A43A0A",
"U  c #AC3B0C",
"Y  c #B03707",
"T  c #B33C04",
"R  c #B83F00",
"E  c #B2370E",
"W  c #B33C0C",
"Q  c #B83C0D",
"!  c #A52E12",
"~  c #A53512",
"^  c #AB3513",
"/  c #A43B13",
"(  c #AC3A13",
")  c #AA3619",
"_  c #A73F18",
"`  c #AD3C1B",
"'  c #B03513",
"]  c #B33C13",
"[  c #B93F16",
"{  c #B33E1A",
"}  c #AC3E21",
"|  c #9F410F",
" . c #9D401D",
".. c #A4410C",
"X. c #AC450D",
"o. c #AD480F",
"O. c #B54105",
"+. c #BA4305",
"@. c #B4420D",
"#. c #BB440C",
"$. c #BC4A0D",
"%. c #A54213",
"&. c #AC4214",
"*. c #AB441A",
"=. c #B54314",
"-. c #B94514",
";. c #B64A15",
":. c #BC4B14",
">. c #B5431B",
",. c #B9451B",
"<. c #B64A1C",
"1. c #BC4B1C",
"2. c #BE5116",
"3. c #BE511B",
"4. c #A34523",
"5. c #AE452A",
"6. c #B54421",
"7. c #BA4622",
"8. c #B64923",
"9. c #BC4C23",
"0. c #B44B2D",
"q. c #BD4E29",
"w. c #BE5123",
"e. c #BF5223",
"r. c #BF5427",
"t. c #BE5823",
"y. c #BE5229",
"u. c #BF552B",
"i. c #BF592B",
"p. c #C04B0B",
"a. c #C24E13",
"s. c #C14E14",
"d. c #C14E1B",
"f. c #C15316",
"g. c #C1541A",
"h. c #C55418",
"j. c #C1541C",
"k. c #C4591C",
"l. c #C85B1C",
"z. c #C14D24",
"x. c #C04E29",
"c. c #C15325",
"v. c #C15524",
"b. c #C35927",
"n. c #C55824",
"m. c #C45A25",
"M. c #C45927",
"N. c #C55A27",
"B. c #C75C27",
"V. c #C85C24",
"C. c #C35328",
"Z. c #C1502A",
"A. c #C15528",
"S. c #C25728",
"D. c #C2552A",
"F. c #C1572B",
"G. c #C2582A",
"H. c #C4592A",
"J. c #C55B2B",
"K. c #C55D2B",
"L. c #C55A2C",
"P. c #C65C2F",
"I. c #C8592B",
"U. c #C95E29",
"Y. c #C85E2C",
"T. c #C35730",
"R. c #C45B30",
"E. c #C55C31",
"W. c #CA5E32",
"Q. c #C96026",
"!. c #C7602A",
"~. c #C7602B",
"^. c #CA602B",
"/. c #CA612C",
"(. c #CA622C",
"). c #C9602E",
"_. c #CD682E",
"`. c #C76136",
"'. c #CA6233",
"]. c #CA6037",
"[. c #CB6339",
/* pixels */
"9.9.9.9.7.s = y ' z.9.z.z.6.5.7.7.9.C.9.z.>.1 = L -.-.-.1.3.:.:.:.:.2.2.$.g @ I <.9.S.e.S.y.P.^.G.m.m.(.b.O.4 , I ] 1.:.,.1.z.,.",
"9.z.9.9.P , > ' x.9.7.x.] { 7.>.,.z.9.9.,.1 - v -.-.#.1.2.-.;.-.:.f.2.+.j + *.S.8.S.C.S.S.H.U.K.m.K.P.m.K > > I ( ,.,.1.d.9.1.9.",
"z.9.9.] : x J C 7.7.q.{ ' x.7.>.z.9.7.,.6 , v Q -.-.,.3.@.( W :.:.:.+.j   / I.9.9.P.G.w.K.'.Y.n.U.^.^.J * 5 P ^ =.1.,.1.d.,.1.x.",
"9.9.{ & z a.:.X.P 7.6.^ 9.7.[ 9.x.7.>.6 + 6 Q ] ] ;.<.-.U &.:.:.:.O.u   4.S.C.9.y.P.w.y.H.(.K.K.!.^.I : 7 L ^ ] ;.1.1.1.,.1.9.9.",
"9.7.> b h.g.:.=.,.W ' 7.7.{ 7.q.7.{ y I _ : s -.-.-.=.P ] ;.#.:.=.< + Z W.S.S.8.P.S.9.H.(.P.K.U.(.@.% 7 L ^ =.,.1.,.1.1.9.9.9.z.",
"7.1 4 p.k.$.;.>.f.:.^ { { 7.x.{ [ m / v.j.v . v -.( ( P :.-.:.-.1 + s S.E.y.9.q.'.S.y.(.Y.H.^.Y.;.% 6 L ^ ] -.;.,.1.>.,.9.9.9.,.",
"6 4 T :.:.3.:.:.f.W P P 7.{ { { 0 j n.3.] ] n : s E U -.-.-.#.4 + c >.y.E.S.9.F.W.e.K.'.P.(.U.1.& 8 L ^ =.-.,.,.,.-.1.9.,.9.,.z.",
"g +.:.2.2.3.:.2.] L -.[ ) { ' N p j.<.) 6.w.G.6.@ c =.-.#.@.3 # c 9.8.T.T.w.9.E.G.c.(.K.P.Y.1.> 8 L P -.-.>.-.,.>.9.,.z.7.9.z._ ",
"$.k.g.:.k.1.:.-.&.-.:.;.O.a q ( j.>.( <.S.H.S.C.*.+ v -.] 8 - w ,.q.9.T.S.9.y.'.9.G.(.Y.(.;.: 4 P ^ =.-.-.-.=.>.1.,.,.7.9.z.( > ",
"k.V.:.k.2.2.-.;.:.:.-.#.I > ;.n.>.` 9.G.H.c.w.E.W.F + i 8 $ 5 ' S.9.y.u.9.9.E.y.w.(.Y.Y.=.% u W E -.] =.-.] ) ,.,.,.7.9.z.) > o.",
"k.2.:.g.2.;.1.:.1.-.$.G < ;.v.>.7.S.S.S.v.n.E.T.u.c.r # % : L C.u.q.D.y.9.9.E.6.H.E.d.I = e W E -.W ] -.] ^ [ ,.,.9.9.7./ > :.f.",
"k.3.2.d.;.;.a.:.:.:.I > <.1.>.t.n.H.c.n.P.P.S.C.W.z.r ; : ( >.D.9.x.q.F.P.E.q.q.G.-.G ; i W E =.E ( [ ] P { >.>.9.9.d.~ 1 :.k.g.",
"3.3.f.:.;.:.g.:.a.I > &.<.<.K.m.v.G.S.S.C.H.E.E.S.V + 1 6.7.9.x.F.u.q.E.c.T.8.P.-.G = i W E Q U U ] ] ] [ >.-.9.9.,./ 3 +.V.3.V.",
"k.3.2.3.1.d.:.:.I : %.,.t.n.v.v.n.H.S.G.E.S.z.,.q # 2 ,.9.9.F.D.T.8.E.S.E.q.9.-.H : q W E Q P ^ ] ] ] -.-.{ 9.7.,.S 4 O.k.k.k.V.",
"g.3.3.3.g.:.$.I % _ 9.e.v.j.v.b.C.y.n.G.9.z.w.m + t 7.9.9.D.x.T.8.q.E.C.C.6.-.K , # i Q W P P W ] [ ] ] -.9.,.>.~ 4 $.k.v.k.Q.k.",
"k.g.k.3.d.#.I % %.j.c.d.j.G.v.c.S.c.z.C.E.S.0 . u 7.7.9.x.F.q.6.8.R.C.E.9.] P : e u + n P P E ] ] ] ] >.9.{ [ S e g.2.Q.3.Q.t.k.",
"3.k.g.j.#.H @ &.j.3.j.b.n.v.e.c.c.n.E.W.C.8   i 7.7.x.D.x.y.} { E.S.P.q.{ K , 4 =.T j + a E E ] ] ] >.,.] =.Z e k.f.k.v.m.Q.3.3.",
"k.3.2.$.I @ I n.v.n.G.v.1.v.S.P.E.F.S.,.6 + C 7.q.T.x.x.q.} 6.F.C.P.9.{ H @ h -.U -.;.8 $ L ] E E >.>.' -.Z e j.n.2.K.k.V.k.3.k.",
"v.1.-.I @ %.n.H.n.j.1.v.S.H.S.y.8.7.K 1 # C q.q.q.7.x.q.` 8.F.F.R.y.{ H $ j :.@.-.;.-.@.8 < E ] [ { E [ S 4 k.Q.O.3.k.(.G.;.t.k.",
"t.=.J % %.m.v.3.1.v.H.I.S.9.,.>.{ E 7 - t { x.7.9.x.q.) 6.x.x.T.y.{ I * j :.-.;.1.:.-.1.=.6 t ] ~ L [ Z 4 n.Q.=.t.B.(.G.( 3.t.k.",
";.J : &.m.g.1.v.F.G.v.<.>.` ` ` K 1 1 7 y ' 7.7.T.7.) 6.F.S.S.x.7.L @ j f.-.;.3.1.-.1.,.=.=.c > 6 ' c 4 n.Q.=.8.m.(.i.( 3.v.k.G.",
"L > *.S.1.g.n.v.<.<.>.6.9.y.9.v < 6 -.] > q { T.7.) q.T.q.T.x.>.L $ b :.=.;.2.1.:.1.1.1.>.,.,.~ 6 > 4 Q.V.@.<.Q.(.E.%.3.k.k.b.8.",
"> &.v.3.v.3.,.1.9.S.n.H.S.v./ + 7 >.,.9.U 2 } { { q.q.q.T.C.6.~ @ b j.;.-.2.j.;.3.e.1.1.,.<.9.E & 4 U.v.@.w.!.^.F.&.e.3.g.b.t.=.",
"U k.j.v.3.9.S.G.v.1.>.,.>.a + 5 T ,.C.<.c.` % ! 7.x.x.T.8.7.~ @ k f.:.;.1.v.1.e.e.1.9.<.<.9.] : 8 m.g.:.K.(.~.G.3.v.k.k.v.K.=.g ",
";.k.d.e.G.n.1.;.{ 9.F.E._ $ < H 1.D.9.9.9.d.S @ 2 ` S.8.7.~ @ z f.:.;.3.3.t.1.G.9.w.<.<.z.] > 9 k.3.3._.^.V.v.n.U.k.k.v.K.:.r : ",
"v.z.c.S.c.>.9.` 9.w.c.%.@ < H c.R.1.9.c.1.v.-.e # > ~ 7.*.@ z f.2.:.3.3.t.3.G.v.w.1.9.z.>.> 9 1.1.!._.!.k.v.m.G.j.v.v.K.g.e 4 -.",
"3.S.S.1.9.S.9.<.9.T.*.O 5 H S.W.<.w.w.w.v.1.G.;.u # % u = z f.3.2.3.v.v.3.c.y.r.9.<.v.<.> 1 #.k.!.~.m.3.G.m.v.k.v.e.K.g.r u d.d.",
"S.S.9.w.S.<.9.9.8.( @ 8 ] S.R.<.S.1.S.c.1.b.G.n.:.i , # x k.3.2.v.v.n.3.S.S.S.t.9.9.9.1 > @.n.(.G.v.1.b.b.l.k.t.<.H.d.e h d.j.1.",
"v.1.9.C.1.c.8.6._ @ B 1.S.E.<.y.9.S.S.<.n.G.b.1.#.k + J f.3.2.3.k.t.c.S.S.F.C.9.9.<.1 : ;.(.P.v.k.<.<.m.v.k.v.9.n.d.e 8 1.j.1.v.",
"v.<.S.<.S.9.6.( @ V 9.9.E.<.C.e.S.S.1.S.S.n.1.O.k $ x :.2.2.k.3.e.c.S.c.S.S.9.w.=.1 , U ^.t.k.3.<.<.m.v.v.n.3.m.1.4 : ( 1.1.1.S.",
"] w.9.w.y.7.=.@ j 9.9.E.,.C.e.S.c.1.H.H.v.d.n.n # z $.2.3.t.3.v.v.S.S.P.E.x.S.*.> * H g.v.v.3.t.n.m.v.m.v.1.m.;.1 4 W -.1.1.1.,.",
">.w.9.S.6.( , u 9.S.E.>.9.e.G.S.1.H.I.k.1.U./ + 1 +.g.v.n.3.v.v.v.S.E.E.F.d.%.: = I :.v.v.<.v.m.v.3.v.1.1.n.-.1 e W -.1.1.1.<.{ ",
"c.9.9.9.( : e 9.E.P.<.8.9.P.v.v.H.n.v.t.U.%.+ 5 X.3.v.3.v.,.3.S.S.C.E.R.-.l @ : I j.v.v.<.w.v.k.1.9.>.3.v.@.> i T -.,.1.,.z.>.( ",
"c.9.q.` < 2 9.[.y.9.S.S.H.t.v.P.H.v.G.^.%.+ e :.n.k.t.v.<.<.w.u.P.R.F.;.H = : =.v.v.v.1.v.v.v.1.9.;.3.n.Q 1 i Q -.,.d.>.1.<.` { ",
"9.w.{ > 4 W E.G.8.y.S.E.G.n.P.m.G.K.n.I + j #.<.=.*.<.,.9.S.u.S.y.q.@.T 8 1 <.S.e.e.v.v.v.1.b.S.;.v.n.-.1 c W ,.,.<.,.>.z.,.^ 9.",
"z.>.> 7 T S.y.9.y.H.H.c.H.K.G.n.U.g.c # k W ( U ] >.1.S.S.S.w.q.6.Q H > 1 <.S.v.e.c.j.G.1.H.3.-.S.v.-.2 @ P -.-.,.,.=.d.<.) >.c.",
"9.1 , H y.P.y.y.'.G.=.<.K.K.K.K.n.k . c O.( -.1.v.S.v.w.w.9.5.6.W H , , T 9.c.c.z.3.e.1.m.1.1.G.1.T e = = 5 ] >.1.] ,.9.] { 9.c.",
"6 $ H S.`.G.R.`.r.>.w.y.H.H.n.g.k + c #.,.1.v.9.9.<.9.9.8.6.<.W v = > e e W e.e.v.v.9.n.-.1.v.1.W r c P e = 8 ,.>.>.1.{ { 9.9.9.",
"+ v W.[.i.P.E.y.9.G.P.K.P.e.#.k + v :.<.1.1.<.<.9.w.9.>.>.q.-.x + 4 H.f.g e 1.e.>.9.S.;.9.H.9.d.i b -.-.=.K i 6 ] ] ] { 9.9.z.~ ",
"/ W.[.F.'.P.P.i.P.H.P.v.<.#.z $ v d.<.,.,.<.9.9.8.6.` 9.F.1.l * 9 Q.(.m.O.1 / d.9.S.-.,.c.j.v.j u -.-.1.,.-.d.S % L [ 7.9.9.^ @ ",
"[.E.T.`.P.G.P.K.P.v.,.8.:.J # c d.] =.,.<.,.6.6.{ 6.S.T.9.a * 3 n.!.b.<.3.1.2 %.b.=.,.v.v.v.c q -.-.d.1.-.1.1.1.N 7 >.9.x.) O V ",
"E.E.T.P.S.E.H.t.9.9.t.3.x ; = 1 ( ,.>.-.>.{ ` >.9.u.u.q.l $ > 3.^.!.t.t.P.m.3.e p =.9.v.c.V r #.:.1.1.1.1.j.1.( ' s C ,.^ O F [.",
"y.F.S.y.P.G.G.e.C.S.s.x @ t s % : c ^ { { >.9.9.C.q.,.l $ 1 3.(.!.t.b.V.m.!.K.3.8 / C.v.c s a.=.1.d.1.:.j.1.;.~ ;.d.c 1 % _ [.W.",
"9.u.F.P.G.G.H.P.n.c.k + c ] ! ) q : ( >.,.q.q.q.7.9./ @ 2 3._.!.Q.b.Q.P.m.m.G.'.S.p _ s n d.-.1.g.2.=.d.j.=.( >.3.v.W # v q.8.7.",
"P.'.E.G.G.y.w.S.P.A + Z [ ! ) ' ^ s 6 z.9.q.7.6.9.` @ e 3._.^.Q.b.Q.b.b.~.~.n.1.<.-.& c d.:.:.j.1.;.( j.;.( >.3.j.-.1 p >.8.q.C.",
"P.y.e.q.q.q.G.P.S o L ,.) ! { ! { ' u y 7.7.7.q.{ : f k._.Q.m.G.b.!.Q.~.v.3.1.e.S.I n :.:.1.j.1.;.( ,.,.;.1.k.k.-.: r 9.T.F.R.E.",
"9.e.9.y.H.H.K.b o ~ z.' ! { ) { ` ) { D p 7.q.{ : f k.!.m.Q.!.Q.Q.b.t.3.v.G.b.K./ n :.1.g.2.:.;.=.1.:.;.3.v.j.#.: q 9.T.E.E.E.T.",
"R.R.P.H.G.c.b @ ~ d.{ ) { ` { { } { q.z.Z Z ' > 9 k.!.!._.Q.v.t.t.v.m.n.b.Q.m.A k :.:.j.1.:.;.>.:.1.;.k.k.f.&.% 2 <.E.E.E.F.9.y.",
"y.y.b.b.v.l @ L d.,.' >.>.' 7.) 7.q.7.} 7.q + 4 n._.(.!.t.9.9.b.K.(.H.H.S.v.j k :.3.2.2.:.;.;.2.:.;.:.v.$.k + r x.E.W.T.y.u.E.E.",
"w.E.P.v.H % ~ 1.9.{ 7.{ ) >.` { q.7.} { d $ 4 k.(.G.t.8.<.8.G.3.3.v.3.j.#.6 c s.2.2.:.2.2.3.2.2.:.j.k.k.n # c T.E.E.T.S.E.T.9.9.",
"G.G.1.T 1 v ,.1.,.>.>.^ >.7.{ x.7.7.>.) $ e j.(.b.r.w.w.v.v.j.1.3.S.v.&.% c f.2.:.:.2.k.3.2.2.2.3.k.k...; r [ T.T.T.T.E.8.6.0.C.",
"G.:.K 3 Z d.1.1.>.>.{ ] q.{ x.8.{ 7.7.6 p -.Y.Y.!.b.b.G.m.K.^.K.H.n.U @ n h.:.:.:.2.2.2.2.2.k.2.k.l.%.= = L z.T.T.E.q.} 0.G.E.y.",
"1.l : s ,.<.z.,.,.{ { 9.>.q.q.{ { x.B G +.K.'.V.v.Q.^.K.m.H.G.v.j.I + c f.:.:.2.g.2.2.:.2.k.k.k.f.%.+ : * V v.T.T.9.} q.S.C.u.E.",
"j # c ,.1.1.,.>.6.{ x.7.9.7.7.7.z.8 p +.n.K.b.K.!.K.G.v.v.v.m.g.G + c a.:.:.2.:.:.2.f.f.k.k.2.l.| # > =.c + w 9.F.y.q.x.S.F.S.z.",
"+ n >.,.9.9.>.7.{ u.x.7.7.} { x.8 4 -.v.P.b.H.H.b.v.m.V.m.G.v.I # e $.:.2.2.$.2.2.k.k.f.2.2.h.%.+ > 8.m.1.u X w 9.E.F.S.9.=.9.>.",
"v ,.>.<.9.-.1.>.7.9.7.7.} 7.x.m 1 v.G.P.t.K.K.G.G.G.c.,.1.-.O.e u @.:.:.:.$.2.k.2.k.f.2.2.l.o.+ > 3.t.y.G.n 4 = w 9.S.;.>.G.t.< ",
"1.` ,.z.,.,.z.>.,.7.7.} 7.x.0 1 e.P.S.w.u.P.S.S.v.=.>.e.9.#.k r $.:.2.:.$.2.k.g.k.2.f.f.l.X.+ 1 <.H.G.G.,.>.m.A . i ( 1.P.9.% > ",
">.>.1.1.,.z.>.7.9.9.` 6.x.0 > v.S.E.w.y.G.v.G.e.=.<.9.v.1.p i :.:.:.#.:.2.3.g.2.f.k.k.l.o.- > =.I.G.P.9.>.g.n.d.c . < c =.> > ( ",
">.<.z.,.9.9.7.9.9.} 6.x.0 % z.S.S.y.0.P.G.S.S.>.8.9.-.,.p j :.;.-.@.~ =.k.2.f.k.k.f.f.X.* 7 ;.S.n.P.v.<.j.K.3.b.1.A @ , % 5 U -.",
"<.z.,.<.z.9.9.9.} { x.m O 9.C.C.9.y.S.S.9.H.<.9.w.<.9.b r -.#.;.=.P U :.2.f.f.2.$.f.X.@ > 2.3.S.F.v.9.3.K.3.K.2.P.n.n @ < G ;.,.",
"1.9.,.z.9.9.9.8.9.9.m o *.S.q.C.q.y.y.9.C.9.<.9.9.1.i : #.-.;.-.@.:.2.f.f.2.2.2.k.X.$ & 1.v.v.P.P.b.1.K.e.n.3.m.S.g.b + L =.-.,.",
"9.,.9.9.9.9.9.x.7.8 + _ F.9.x.9.0.8.y.q.S.9.S.9.] i # H #.:.-.-.2.2.2.2.2.2.f.h.X.@ 6 <.b.z.G.b.K.e.K.v.n.k.P.v.R b . c ] <.1.9.",
",.1.9.9.9.9.x.>.6 $ ~ x.9.S.9.0.} 9.9.C.9.9.y.{ e + v #.:.-.;.2.:.2.2.2.f.f.f.X.@ e -.H.e.S.H.^.b.P.m.b.v.K.b.R c . c ] ,.1.1.1.",
"9.9.z.9.q.9.C % > ~ x.7.q.q.0.5.6.9.9.q.9.y.,.u @ s -.-.-.:.1.:.:.2.2.2.2.p...= i Q c.S.v.G.G.m.K.n.v.m.n.K.O.k # c ] ,.-.1.1.1."
};
