/* XPM */
static char *e7fb59047ba24397a91d7b5107cd112dhzUUDhSZncD2UqFP[] = {
/* columns rows colors chars-per-pixel */
"64 64 174 2 ",
"   c #031700",
".  c #0B1400",
"X  c #0E1800",
"o  c #141500",
"O  c #1C1500",
"+  c #121902",
"@  c #1C1801",
"#  c #250E00",
"$  c #3B0F00",
"%  c #231600",
"&  c #2B1500",
"*  c #241802",
"=  c #2A1903",
"-  c #331501",
";  c #3B1401",
":  c #331803",
">  c #391803",
",  c #440E00",
"<  c #4E0D00",
"1  c #5D0601",
"2  c #540D01",
"3  c #5B0E01",
"4  c #431402",
"5  c #4C1302",
"6  c #4D1906",
"7  c #4C1609",
"8  c #4E180A",
"9  c #531203",
"0  c #5B1204",
"q  c #541608",
"w  c #5B130A",
"e  c #52190B",
"r  c #650601",
"t  c #6D0400",
"y  c #630D03",
"u  c #6C0C03",
"i  c #6C050C",
"p  c #640F09",
"a  c #6E0D0B",
"s  c #740402",
"d  c #7B0404",
"f  c #730B03",
"g  c #7B0C05",
"h  c #740609",
"j  c #7D0509",
"k  c #740C0C",
"l  c #7B0C0D",
"z  c #631205",
"x  c #6B1106",
"c  c #64130B",
"v  c #6C140C",
"b  c #63190D",
"n  c #68180C",
"m  c #721104",
"M  c #73130D",
"N  c #7B130D",
"B  c #75180E",
"V  c #750D11",
"C  c #7B0E11",
"Z  c #6D1512",
"A  c #661B13",
"S  c #751412",
"D  c #7C1414",
"F  c #741B13",
"G  c #7D1915",
"H  c #7C1519",
"J  c #7D1B1A",
"K  c #7E201E",
"L  c #7C2922",
"P  c #830505",
"I  c #890303",
"U  c #840A04",
"Y  c #8C0A06",
"T  c #870608",
"R  c #850D0D",
"E  c #8B0D0C",
"W  c #920E0A",
"Q  c #871007",
"!  c #84120E",
"~  c #8B130E",
"^  c #821A0F",
"/  c #8B190F",
"(  c #90180F",
")  c #810F12",
"_  c #880F12",
"`  c #841413",
"'  c #8B1513",
"]  c #841A15",
"[  c #8B1A15",
"{  c #831619",
"}  c #891619",
"|  c #841B1B",
" . c #8B1C1B",
".. c #921612",
"X. c #991614",
"o. c #931B15",
"O. c #9A1D16",
"+. c #901718",
"@. c #931D1A",
"#. c #9A1E1A",
"$. c #85211E",
"%. c #8C211E",
"&. c #9A2017",
"*. c #93221D",
"=. c #9B231C",
"-. c #A2241B",
";. c #A2291F",
":. c #851D20",
">. c #8C1E21",
",. c #921E21",
"<. c #862121",
"1. c #8C2220",
"2. c #8F2220",
"3. c #8C2322",
"4. c #8F2523",
"5. c #822926",
"6. c #8E2925",
"7. c #8F2228",
"8. c #842A29",
"9. c #8D2C29",
"0. c #912322",
"q. c #912422",
"w. c #972721",
"e. c #942522",
"r. c #912524",
"t. c #912624",
"y. c #9A2522",
"u. c #932923",
"i. c #972923",
"p. c #942A25",
"a. c #972A24",
"s. c #962D27",
"d. c #982923",
"f. c #992B25",
"g. c #9B2B25",
"h. c #9C2A24",
"j. c #982C25",
"k. c #9F2D25",
"l. c #952529",
"z. c #9A2629",
"x. c #962B29",
"c. c #962F29",
"v. c #992F28",
"b. c #9D2E28",
"n. c #9C2C2A",
"m. c #88302E",
"M. c #9C3026",
"N. c #97302B",
"B. c #9E312A",
"V. c #9D312C",
"C. c #9D342D",
"Z. c #9B2D31",
"A. c #9E3131",
"S. c #9D3831",
"D. c #A12C25",
"F. c #A32F27",
"G. c #A02E28",
"H. c #A22E2A",
"J. c #A82F29",
"K. c #A23026",
"L. c #A83027",
"P. c #A1312A",
"I. c #A3332B",
"U. c #A4332B",
"Y. c #A7332B",
"T. c #A4332C",
"R. c #A5342D",
"E. c #AA332C",
"W. c #A2392F",
"Q. c #A9392E",
"!. c #A33431",
"~. c #A33A34",
"^. c #A63834",
"/. c #A83B38",
/* pixels */
"%.2.%.4.| 2 : 1 V r.:.4.2.K 5.>. .2.r. .4.| ; : u ` ' E @.@.' o.o.~ o.o.W 0 & F $.%.k.i.j.k.P.U.D.k.k.U.k.P 5 > a ` [ [  . . . .",
"2.2.4. .r : 4 k q.$. .r.k G  .{  .4.2. .] : & i R ' ` @.#.! ` / ..O.O.Y 0 @ G d.4.M.k.i.s.P.U.U.h.P.U.P.g 4 ; f ` ] [  . .@. . .",
"2. .2.a - g f n | | r.V V q.| | 2. .| | ; ; u ) ` R [ @.! ` ! o.o...Y 0 . S D.u.4.C.w.g.k.R.T.h.U.K.U.d = ; k D D [  .[  . . .q.",
" .0.M & g o.o.! k  .J V 2.| { $.:.{ G 4 % 5 j ` R } @.` N ! ..' ~ U 5 . L s.g.4.x.B.i.j.I.R.B.P.U.U.! & 4 k N D ' [  . . . .2.2.",
"r.G & m -.#./ [ *.d k $.| H | 2.] H q N N ; 0 ' ` } ! N ! ' ~ ' ! ; @ x ~.a.g.4.S.k.i.n.R.P.K.U.U.! - 4 k D ` ' ' [  .]  .%. .0.",
"{ & z o.=.( *.] #.' h H H | :.| V q N =.*.a . y ' M l l ' ' ~ ~ 4 % c g.S.d.u.r.P.j.j.R.R.P.U.E.[ - 5 k k ` ' `  . .[  .$.%.%. .",
"- z I o...O.[ o.o.! l s J :.{ V 4 v =.%.] ] B - 3 l D ` ~ ~ R 5 @ x  .x.C.s.*.N.P.i.B.R.B.P.U. .; 6 h k ` ` ' } { }  .%. .%. .2.",
"u Y O.o.#.*.o.O.l N ` ' k H i 2 u *.%.] $.*.h.$.& 3 R ' ~ ! 4 % c 2.$.N.C.*.6.S.k.i.R.P.U.U.@.; 5 h N ` ' ` [ } ]  . . .%.$.%.H ",
"( ;.=.o.=.O.o.` ` ' o.' P y < ` *.[ | *.g.a.i.x.$.O z R R 5 = 2 ] 4.4.V.N.*.N.W.*.k.R.R.T.[ ; 5 j k R ` ` ` ! { |  .]  .2.q.S $ ",
";.=.o.=.O.o.' o.o.o./ E u 4 *.*.] | i.i.g.i.=.C.~.F o 0 5 & ; C z.2.a.N.%.%.S.N.u.I.R.P.` & e d l R ` ) ` D S | [ ]  .2.2.S $ ] ",
";.o.o.*.o.[ o.[ o.~ E u 4 *.*.| *.g.h.d.w.g.P.C.i.z.3 * = - i i.x.6.x.x.a.%.S.%.B.P.*.s & 9 d j ! ) ) ` l D G } } $.4. .S ; [ &.",
"=.&.#.O.[ [ o.O.' ' u 4 [ *.%.g.D.d.d.h.B.B.x.s.C.4.< : ; S { j.q.x.p.N.M.C.d.d.k.! t = 0 j l R l k ) l k ` { { | 4. .S 4 / -.=.",
"&.&.*.o. .o.*...~ x ; [ %.*.k.g.w.a.k.s.i.n.B.B.r.w * , |  .6.g.i.x.l.B.N.B.%.N.' t : 0 j l R k k l l C ` ` D 2.2.} B 6 U -.=.;.",
"=.=.*.o.o.#.[ ~ u ; ] *.=.k.i.*.g.g.a.j.B.i.0.{ < @ 5 | 2.$.x.r.x.6.M.j.N.i.6.' s - 5 j j j h k R C l ` ` {  . .` v 5 U D.=.;.K.",
"&.*.&.#.#.[ ~ m - ] *.d.=.*.d.k.g.a.N.i.%.4.4.q @ e | 2.$.s.x.N.6.u.C.j.B.%.` s ; @ 9 j j h k l l C ` C } $.] ` Z 9 ( &.;.=.K.=.",
"=.=.&.*.@.E f & ] =.*.*.w.h.h.d.i.i.*.i.B.v.q o q | $.4.x.x.4.<.<.N.z.C.6.{ s > 9 z * 0 h k l h l l l { :.` C Z < =.&.;.=.;.;.=.",
"=.=.*.O.E u & [ =.*.w.h.h.w.w.w.z.j.P.P.s.4 @ w :.4.r.r.r.r.<.$.n.n.n.a.] s : 0 _ R p @ 3 j k l l l ` | k ) Z 2 =.=.=.;.=.L.=.=.",
"=.O.#.' u % ] =.=.g.h.*.*.w.k.k.k.N.i.| 4 @ c :.r.r.6.6.r.L <.n.n.V.u.| s = 0 E l _ ' 3 O i j l l { { k ` Z 2 =.;.o.K.&.U.;.=.=.",
"=.*./ f & ] h.d.w.@.*.*.h.n.j.d.q. .s ; * w 7.6.9.:.7.6.J | n.N.V.x.] u % w ..R ' +.' _ w - h l ` D k ) n 2 -.K.Y &.=.Q.N.*.=.=.",
"*.' u & ] h.=.*.*.i.k.k.g.*.$.$.] h ; = 2 C 6.:.<.u.6.J $.M.x.n.x.| u * z X._ ' +.' _ [ ` 9 4 k k i ) p 5 =.L.%.M.K.Q.C.B =.=.=.",
"[ u - %.=.*.*.=.D.g.*.%.| | | ] s 4 5 5 2 V :.>.x.6.F <.N.4.v.n.:.a * z X.+._ @.+._ @.} ` _ a ; 4 k c < g.L.[ *.L.Q.W.$.=.=.=.D.",
"x - %.h.*.w.d.*.%.$. .u.u.j.r.z - 5 ` C ; , :.l.| H 2.x.6.z.x.:.a O x X.[ ' #.+.' @.@.} } } { V < - < D.D./ *.K.U.W.^ *.=.=.k.M.",
"4 [ =.*.d.*.%.*.a.k.k.h.a.i.v o 5 }  .2.k < Z H J 6.4.6.n.6.1.v O x X.o.' @.#.+.,.,.>.} } }  .k - 5 D.;.~ *.Q.U.M.%.=.j.=.=.M.^ ",
"R #.=.*.*.*.h.d.*. .] | ] r O 5 d  .z. .y.{ & 1 | 6.6.x.6.%.S O x X.o.[ +.#.@.@.y.+.,.} }  .) ; 7 D.=.[ P.Q.K.K.=.=.=.=.=.K.*.z ",
"[ =.*.w.g.i.%.] $.*.M.B.F * 4 d  .z. .w.*.@.v % , S x.2.1.v O f O.#.[ +.#.,.@.z.,.,.@.} ,.) 4 6 =.&.k.Q.Q.D.k.D.k.=.=.k.W.#.3 - ",
"*.*.w.h.*.%.*.] *.u.*.B O 4 d r.n. .4.@.,.0.' 3 * - v :.S % m #.#.o.#.-.y.#.y.y.,. .>.,.} $ 6 o.*.K.Q.M.=.=.k.k.=.=.=.M.=.3 5 ! ",
"*.w.w.*.%.g.%.%.r.N.K . 5 d z.n. .w.,.w.0. .y.+.0 * - 5 & f #.#.X.,.#.,.,.,.z.l.,. .,. .4 ; R =.U.U.=.=.=.M.k.=.=.*.C.=.3 5  .*.",
"g.w.*.w.=.%.%.6.6.S O 6 ` a.n. .q.,.y.r.@.g.y.h.[ 1 : * g #.#.X.=.y.D.,.,.h.z.,.,.,.>.4 ; R D.K.M.=.*.=.D.k.=.*.*.C.&.0 7 o.@.#.",
"*.*.0.w. .i.%.4.S o w @.x.n. .z.,.y.y.@.z.y.w.+.T x % f X.#.X.,.z.-.z.,.D.z.z.,.,.} 4 - ] Q.K.=.=.%.*.M.=.d.h.*.k.#.0 4 o.@.@.*.",
"*.%.y. .i.4.%.S O A q.i.n.>.y.,.z.y.+.h.y.w. .E y @ f X.o.#.#.-.#.z.,.D.H.z.,.,.` 4 : g K.M.=.*.%.*.k.=.y.k.=.k.#.9 & k o. .%.i.",
"` i.%.w.r.%.D % b ,.l.n. .z.0.n.w.@.n.g.y.@.h.x + m W @.#.y.,.,.z.#.,.H.Z.l.z.{ ; * f =.g.=.*.d.M.M.=.j.*.*.g.o.5 4 d ' [  .[  .",
" .q.%.i.$.S & w @.n.n.| r.w.n.w.*.n.n.y.w.H.N   5 Y #.=.y.@.,.D.,.D.H.Z.z.+.D - = f [ *.d.*.j.j.=.=.=.*.@.i.' 4 5 d ` [ *.' %.| ",
"q.*.q.4.S & 3 ,.!.x.>.0.q.n.y.y.D.n.*.h.D.N o 5 ~ -.y.,.y.[ ,.y.z.Z.Z.z.} r & - N *.=.i.%.*.h.=.*.u.[ %.w.~ , 9 j ' [ @.`  . .G ",
"q.%.4.S - 2 q.^.x.r.z.w.H.w.y.H.z.w.D.D.M O 0 +.,.,.#.y.,.@.,.z.z.Z.l._ P : - ` d.i.w.*.i.k.*.*.*.[ *.k.~ 4 9 d ` }  .`  . .| G ",
"2.q.H - 9 ~ !.x.r.z.z.n.y.n.H.z.h.H.y.m o z W  .'  .} +.@.l.z.z.z.l._ d 9 ;  .g.d.=.i.i.d.*.w.w.' w.h.' < 0 d ` } [  .{  . .D %.",
"0.| - 5 P z.n.r.z.n.n.,.H.H.h.n.H.=.z + x E D ) `  .,.y.l.y.,.l.,.T j 4 ;  .h.*.*.d.*.=.@.d.*.[ d.*.E 9 % u ` } `  .N  .%.G G 0.",
"] - 4 d z.S.N.z.C.z.` *.H.n.n.M.#.x . y T ) ` +.,.,.l.,.,.l.7.:.R f - = d o.a.*.*.*.i. .g.o.[ g. .P 3 & = ; k }  .`  .%.{ G 0.*.",
"4 & d C.^.n.n.R.z.] z.g.H.k.D.X.z o x E } +.,.,.@. .,.,.7.:.:.P u & ; 3 9 l i.*.*.*.%.k.[ [ g.*.R 3 w f 9 > ; } ` `  .{ G  .2. .",
"% k !.~.z.C.!.l.r.n.P.H.D.y.~ y @ k '  .+.>.} >.,.,.0.:.| ,._ u % 5 y.-.u 5  .*. .e.i.} 1.g.*.} z 0 _ ' ! d y 4 h D D D  .2.>.S ",
"G /.!.n.!.!.x.n.n.H.k.w. .~ y * v ' } [ } [ ,.>.>.{ { ,.n. .r O q D.E.h.~ 2 n *.*.w.` [ w.*.*.c 9 ! '  . .' +.F - y ) | 2. .D - ",
"/.A.n.!.Z.n.P.F.n.y.*.0.' f * y _ ` ` } } } :.:.{ } l.Z.>.i * 5 D.J.D.q.*.#.2 N w.` [ 0.w.=.v < ~ ' [ @.' [ *.o.x ; H 2.:.D # q ",
"A.P.A.n.n.j.n.z.r.w.z.o.f * = 4 l } ` ) { { ) { >.l.l.>.u * , =.L.H.w.h.H.D.0.2 2 ` @.w.w.Z 2 R ' [ @.[ [ @.[ D H x 5 ] D & A ^.",
"n.x.z.z.n.n.z.z.g.g.o.u * 9 3 & ; p k ` H :.>.,.l.r.| t * 4 O.E.J.h.D.H.D.h.n.y.q v w.0.n 3 ~ ' [ @.o.[ *.O.] D ] #.v 4 - n !.A.",
"0.x.n.n.n.z.n.k.C.=.1 * z l V V 5 & C { >.>.,.>.:.>.k = < =.E.E.D.H.D.D.D.g.H.P.y.y S c z o.[ o.@.#.` #.*.] ] [ *.=.E - y l.6.1.",
"n.!.C.z.n.k.M.n.n.c O a ) Z S S V w , :.>.>.:.{ ,.H % 2 -.E.J.D.D.D.D.D.H.H.h.@.@.' ; c o.' o.*.@.[ ` *.@.] [ *.=.' 5 2 { 7.6.u.",
"C.z.i.a.i.x.n.k.n @ M } V S H V { V w 2 } :.:.7.H & 3 =.E.D.D.D.D.J.D.D.h.@.#.,.h.S x o.[ @.*.o.] ] [ [ ] o.*.=.' 5 <  .x.x.Z.A.",
"0.a.x.x.n.H.D.b % k } S V J V H H S :.A 1 :.7.H - 0 D.J.D.J.H.U.D.D.y.y.y.h.z.h.S z ..[ #.O.[ [ [ [ o.[ =.=.=.' 4 4 { n.Z.A.!.n.",
"n.!.V.z.z.#.c % k  .D V | H H J S :.:.:.Z i V $ 0 ,.J.J.J.J.D.i.,.D.D.D.z.D.h.S y ..O.#.o.[ [ [ *.O.[ =.=.O./ ; $ } n.Z.A.n.9.r.",
"l.z.z.a.#.r * k  . .D ] { S | S | 7.L :.D 4 @ 9 h.E.E.H.g.w.i.k.H.H.D.h.n.=.z 3 ' &.O.[ [ [ o.O...[ &.=.( u & 5 7.S.V.Z.l.x.n.A.",
"a.H.H.@.g & M  . .` ] | S { J { 7.:.| V 1 = 2 =.J.D.d.z.q.u.n.#.=.y.*.=.' 5 z X.*.o.[ o.O.*.&.o.&.&.=.=.N * 2 x.A.n.N.x.A.n.r.2.",
"z.n.+.d 4 a [  .} { | S { | G 6.<.| | Z * 2 =.E.k.h.d.d.y.d.y.#.@.w.y.` ; y o.*.o.( O.#.&.o.( &.=.=.;./ & < j x.Z.x.Z.n.6.<.7.M.",
"g.E g 4 Z [  . .D ] G D :.{ 6.:.| J :.5 r ..U.H.U.D.h.D.D.D.D.H.D.D.D & z o.&.~ o.O.O.O.o.O.&.-.=.-.^ - = y 7.Z.x.Z.x.<.7.n.n.z.",
"@.r - c  .[  .} ] { J 1.] 3.1.| | :.7 f Y D.U.D.h.D.F.H.D.h.y.d.,.m O c o.O.~ o.&.O.( o.&.-.=.&.-.N * & = e 7.x.n.4.:.6.l.x.d.n.",
"0 @ v ] ]  . .] | J l.] 2.<.K | 2.7 r I y.!.y.D.H.D.d.y.y.y.h.@.s % z X.' ( O.o.' o.O.&.-.-.&.-.^ * > ] x o < | a.l.6.l.i.x.z.r.",
"@ F ] }  . .` %.| 4.2.1.<.J | 7.7 9 ' z.H.y.n.H.z.y.n.H.D.n.y.k @ 9 ~ ' o.o.( o.O.&.-.&.&.O.-.] % - %.d.*.0 + < | Z.z.n.2.` *. .",
"v ' | [ r.} | | <.2.$.<.J | 6.8 , w.n.H.y.H.D.h.n.D.w.} } ' T 3 9 U ' O.X.( o.O.#.-.&.O.&.;./ % - %.=.a.g.M 9 - <  .n.] ` d.z.q ",
"' |  .>.]  .2.] ] | 6.J :.4.8 4 z.s.n.q.n.n.d.n.z.! ' w.0.R y 0 E o.o.~ ( O.O.&.&.&.O.-.-.( = ; | h.i.B.[ ] *.G . q N ' n.q.5 & ",
"] $. . .{ 4.]  .:.6.J | 7.6 $ i.z.z.z.q.n.y.z.d.]  .2.0.+.y 0 ~ [ o./ [ O.#.&.O.O.&.-.-./ : - N D.i.C.w.%.*.D.*.v . - z } 5 % k ",
"$. .*.] r. . .$.2.J <.6.e - z.z.a.4.r.z.y.y.y. .7.%.} ' y 0 ~ o.~ ! N [ &.&.=.&.-.O.O.Q > - ] =.j.P.j.*.*.K.*.k.*.B & = - : f ` ",
"$.%.|  .2. .2.4.| <.2.8 % 2.i.q.z.9.M.l.q.z.:.q.0. .@.z 0 ~ ' ~ ` ! ! ~ O.O.O.O.X.O./ - - ] *.d.k.M.i.*.H.*.k.*.D.H.B - > t ` ' ",
"@. . .2. .$.2.<.3.1.7 O | z.4.z.9.x.l.2.z.r. .r. .[ y - R ~ ' ' ! / o.&.O.o.o.O.-./ - & ] i.i.k.C.d.*.H.*.K.*.k.k.&.B @ y ) ` [ ",
"%. .2. .%.2.2.r. .7 O S l.:.z.4.9.r.2.q.r.>.r.[ ) 0 O f E ' ' ~ o.O.O.( o.O.O.-./ & ; ] D.2.k.B.P.w.k.g.k.=.K.k.P M . 3 ` [  .@.",
" .2.%.2.2.4.z.J 4 & a l.>.2.:.m.:.:.:.z.2.>.l.{ 2 O y ' ' ~ ' o.o.o.o.O.O.&.O.Q & 5 R k.w.g.k.P.k.D.D.a.g.M.D.I x @ 9 `  .'  . .",
" . .2.2.4.2.w & ; a 7.3.4.2.8.5. .:.0.0.>.r.| 0 % y R ' / [ @.o.' o.O.o.o.o.Q - 0 j 2.d.w.n.n.P.k.B.g.D.k.U.Y u * 0 ) ] [ [  . ."
};
